<?xml version="1.0" encoding="UTF-8"?>
<!-- Generator: Adobe Illustrator 21.1.0, SVG Export Plug-In . SVG Version: 6.00 Build 0)  -->
<svg version="1.1" id="logo" xmlns="http://www.w3.org/2000/svg" xmlns:xlink="http://www.w3.org/1999/xlink" x="0px" y="0px" viewBox="0 0 300 300" style="enable-background:new 0 0 300 300;" xml:space="preserve">
<style type="text/css">
	.st0{fill:url(#cloud9_1_);}
</style>
<linearGradient id="cloud9_1_" gradientUnits="userSpaceOnUse" x1="2.114215e-05" y1="150" x2="300" y2="150">
	<stop offset="0" style="stop-color:#29A8E0"/>
	<stop offset="1" style="stop-color:#2B75BB"/>
</linearGradient>
<path id="cloud9" class="st0" d="M286.7,160.5c-17-20.4-48.3-25.7-71.9-14.3c-15.1,7.2-26.6,21.4-30.3,37.7  c10.6,5.7,21.2,11.3,31.8,17.1c0.4-8.2,3.1-17.4,10.7-21.8c9.7-5.2,23.4-4.8,31.2,3.7c8.5,8.7,8.4,24.2-0.2,32.8  c-5.8,6-15,8.1-22.9,5.9c-4.6-1.3-9-3.2-13.2-5.6c-16.8-9.3-33.5-18.7-50.3-28c8.9-16.1,17.7-32.3,26.6-48.5  c5.2-10,10.2-20.3,12.2-31.5c2.5-18.6-3.7-38.7-18-51.3c-21-18.7-55.5-19.4-77.7-2.3C98,67.2,90.7,89.3,93.6,109.7  c2.7,22.8,20.5,42.8,42.9,47.8c6-10.4,11.5-21.2,17.2-31.7c-6.9-0.5-14.3-2.2-19.3-7.4c-5.4-5.8-6.5-14.4-5.5-21.9  c1.4-10,10.4-18,20.4-18.6c10.8-1.4,22.2,5.5,25,16.2c2.5,8.1-0.6,16.5-4.2,23.8c-9.8,17.6-19.7,35.2-29.6,52.9  c-20.5-9.9-39.5-22.7-60.6-31.2c-18.8-8.2-41.9-5.1-58.1,7.2c-27.8,21.1-29.2,67.7-3.5,90.9c11.4,10.5,27.1,15.5,42.5,14.8  c25.3,0.1,49.3-18.6,54.6-43.5c-10.5-5.9-21.1-11.4-31.7-17.1c-0.5,8.4-3.3,17.8-11.2,22c-9.4,4.8-22.4,4.4-30.2-3.4  c-6.6-6.4-8.3-16.7-5.3-25.2c2.6-7.3,9.2-13,16.8-14.3c7.4-1.7,14.8,1.2,21.4,4.4c43.5,23.8,86.7,48.1,130.4,71.6  c11.6,5.6,23.8,11.5,37,10.9c15.9-0.1,32-6.4,42.6-18.5C304.5,218,304.8,182.5,286.7,160.5z"/>
</svg>